<svg id="bold" enable-background="new 0 0 32 32" height="512" viewBox="0 0 32 32" width="512" xmlns="http://www.w3.org/2000/svg"><path d="m26 32h-20c-3.314 0-6-2.686-6-6v-20c0-3.314 2.686-6 6-6h20c3.314 0 6 2.686 6 6v20c0 3.314-2.686 6-6 6z" fill="#fff9dd"/><path d="m12.833 18.333h-.5v2h.5c.092 0 .167-.075.167-.167v-1.666c0-.092-.075-.167-.167-.167z" fill="#ffe777"/><path d="m16.167 18.333h-.333c-.092 0-.167.075-.167.167v1.667c0 .092.075.167.167.167h.333c.092 0 .167-.075.167-.167v-1.667c-.001-.092-.076-.167-.167-.167z" fill="#ffe777"/><path d="m20.833 8h-9.667c-1.011 0-1.833.822-1.833 1.833v12.333c0 1.011.822 1.833 1.833 1.833h9.667c1.011 0 1.833-.822 1.833-1.833v-12.333c.001-1.011-.822-1.833-1.833-1.833zm-6.833 12.167c0 .643-.523 1.167-1.167 1.167h-1c-.276 0-.5-.224-.5-.5v-3c0-.276.224-.5.5-.5h1c.643 0 1.167.523 1.167 1.167zm3.333 0c0 .643-.523 1.167-1.167 1.167h-.333c-.643 0-1.167-.523-1.167-1.167v-1.667c0-.643.523-1.167 1.167-1.167h.333c.643 0 1.167.523 1.167 1.167zm1.834.166h1c.276 0 .5.224.5.5s-.224.5-.5.5h-1c-.643 0-1.167-.523-1.167-1.167v-1.666c0-.643.523-1.167 1.167-1.167h1c.276 0 .5.224.5.5s-.224.5-.5.5h-1c-.092 0-.167.075-.167.167v1.667c0 .091.075.166.167.166z" fill="#ffd200"/></svg>