<svg height="512pt" viewBox="0 0 512 512" width="512pt" xmlns="http://www.w3.org/2000/svg"><path d="m416 512h-320c-53.023438 0-96-42.976562-96-96v-320c0-53.023438 42.976562-96 96-96h320c53.023438 0 96 42.976562 96 96v320c0 53.023438-42.976562 96-96 96zm0 0" fill="#fff9dd"/><path d="m315.921875 295.054688c-2.738281 0-5.457031-1.039063-7.539063-3.117188-4.160156-4.160156-4.160156-10.914062 0-15.089844l28.433594-28.433594c9.824219-9.710937 15.199219-22.703124 15.199219-36.605468-.015625-28.578125-23.261719-51.808594-51.824219-51.808594-13.886718 0-26.878906 5.390625-36.574218 15.167969l-28.464844 28.464843c-4.160156 4.160157-10.914063 4.160157-15.089844 0-4.175781-4.160156-4.160156-10.914062 0-15.089843l28.433594-28.429688c13.695312-13.824219 32.078125-21.457031 51.695312-21.457031 40.335938 0 73.152344 32.816406 73.152344 73.152344 0 19.632812-7.632812 38-21.488281 51.726562l-28.382813 28.386719c-2.097656 2.09375-4.832031 3.132813-7.550781 3.132813zm0 0" fill="#ffd200"/><path d="m211.808594 373.328125c-40.335938 0-73.136719-32.816406-73.136719-73.152344 0-19.632812 7.632813-37.984375 21.472656-51.710937l28.398438-28.402344c4.160156-4.160156 10.914062-4.160156 15.089843 0 4.175782 4.160156 4.160157 10.914062 0 15.089844l-28.433593 28.433594c-9.808594 9.726562-15.199219 22.71875-15.199219 36.605468 0 28.5625 23.246094 51.808594 51.808594 51.808594 13.886718 0 26.878906-5.390625 36.574218-15.167969l28.464844-28.464843c4.160156-4.160157 10.914063-4.160157 15.089844 0 4.175781 4.160156 4.160156 10.914062 0 15.089843l-28.433594 28.429688c-13.695312 13.824219-32.0625 21.441406-51.695312 21.441406zm0 0" fill="#ffd200"/><path d="m213.34375 309.328125c-2.734375 0-5.457031-1.039063-7.535156-3.121094-4.160156-4.160156-4.160156-10.910156 0-15.085937l85.328125-85.328125c4.160156-4.160157 10.910156-4.160157 15.085937 0 4.175782 4.160156 4.160156 10.910156 0 15.085937l-85.328125 85.328125c-2.09375 2.082031-4.832031 3.121094-7.550781 3.121094zm0 0" fill="#ffe777"/></svg>