<svg height="512pt" viewBox="0 0 512 512" width="512pt" xmlns="http://www.w3.org/2000/svg"><path d="m416 512h-320c-53.023438 0-96-42.976562-96-96v-320c0-53.023438 42.976562-96 96-96h320c53.023438 0 96 42.976562 96 96v320c0 53.023438-42.976562 96-96 96zm0 0" fill="#ffe6e2"/><path d="m264 384c-44.113281 0-80-35.886719-80-80v-112c0-5.886719 4.785156-10.671875 10.671875-10.671875s10.671875 4.769531 10.671875 10.671875v112c0 32.335938 26.320312 58.671875 58.671875 58.671875s58.671875-26.320313 58.671875-58.671875v-117.328125c0-20.574219-16.75-37.328125-37.328125-37.328125-20.574219 0-37.359375 16.734375-37.359375 37.328125v106.671875c0 8.816406 7.183594 16 16 16s16-7.183594 16-16v-101.34375c0-5.886719 4.785156-10.671875 10.671875-10.671875s10.671875 4.769531 10.671875 10.671875v101.328125c0 20.574219-16.75 37.328125-37.328125 37.328125-20.574219 0-37.328125-16.753906-37.328125-37.328125v-106.671875c-.015625-32.335938 26.304688-58.65625 58.640625-58.65625s58.671875 26.320312 58.671875 58.671875v117.328125c0 44.113281-35.886719 80-80 80zm0 0" fill="#fc573b"/></svg>