<svg height="512pt" viewBox="0 0 512 512" width="512pt" xmlns="http://www.w3.org/2000/svg"><path d="m416 512h-320c-53.023438 0-96-42.976562-96-96v-320c0-53.023438 42.976562-96 96-96h320c53.023438 0 96 42.976562 96 96v320c0 53.023438-42.976562 96-96 96zm0 0" fill="#fff9dd"/><g fill="#ffd200"><path d="m200 293.328125h-2.671875v10.671875h2.671875c3.648438 0 8-.929688 8-5.328125 0-4.414063-4.351562-5.34375-8-5.34375zm0 0"/><path d="m333.328125 128h-154.671875c-16.175781 0-29.328125 13.152344-29.328125 29.328125v197.328125c0 16.175781 13.152344 29.328125 29.328125 29.328125h154.671875c16.175781 0 29.328125-13.152344 29.328125-29.328125v-197.328125c.015625-16.175781-13.152344-29.328125-29.328125-29.328125zm-133.328125 192h-2.671875v13.328125c0 4.414063-3.585937 8-8 8-4.417969 0-8-3.585937-8-8v-48c0-4.417969 3.582031-8 8-8h10.671875c14.128906 0 24 8.769531 24 21.328125s-9.871094 21.34375-24 21.34375zm77.328125 13.328125c0 3.648437-2.464844 6.832031-6 7.742187-.671875.175782-1.34375.257813-2 .257813-2.847656 0-5.550781-1.535156-6.992187-4.113281l-11.664063-21.007813v17.121094c0 4.414063-3.582031 8-8 8-4.414063 0-8-3.585937-8-8v-48c0-3.648437 2.464844-6.832031 6-7.742187 3.503906-.945313 7.214844.671874 9.007813 3.855468l11.664062 21.007813v-17.121094c0-4.417969 3.585938-8 8-8 4.417969 0 8 3.582031 8 8v48zm26.671875-8h10.671875v-3.121094c-3.105469-1.085937-5.328125-4.0625-5.328125-7.535156 0-4.414063 3.585938-8 8-8h5.328125c4.417969 0 8 3.585937 8 8v18.671875c0 4.417969-3.582031 8-8 8h-18.671875c-10.289062 0-18.671875-8.367188-18.671875-18.671875v-26.671875c0-10.289062 8.367187-18.671875 18.671875-18.671875h18.671875c4.417969 0 8 3.582031 8 8 0 4.414063-3.582031 8-8 8h-18.671875c-1.472656 0-2.671875 1.199219-2.671875 2.671875v26.671875c0 1.457031 1.199219 2.65625 2.671875 2.65625zm0 0"/></g></svg>