<svg id="bold" enable-background="new 0 0 32 32" height="512" viewBox="0 0 32 32" width="512" xmlns="http://www.w3.org/2000/svg"><path d="m26 32h-20c-3.314 0-6-2.686-6-6v-20c0-3.314 2.686-6 6-6h20c3.314 0 6 2.686 6 6v20c0 3.314-2.686 6-6 6z" fill="#ffe6e2"/><path d="m20.833 8h-9.667c-1.011 0-1.833.822-1.833 1.833v12.333c0 1.011.822 1.833 1.833 1.833h9.667c1.011 0 1.833-.822 1.833-1.833v-12.333c.001-1.011-.822-1.833-1.833-1.833zm-7.333 10.333h-.333v2.5c0 .276-.224.5-.5.5s-.5-.224-.5-.5v-2.5h-.333c-.276 0-.5-.224-.5-.5s.224-.5.5-.5h1.666c.276 0 .5.224.5.5s-.224.5-.5.5zm3.771 2.258c.134.242.047.546-.194.68-.077.043-.16.063-.243.063-.175 0-.346-.093-.438-.257l-.396-.714-.396.713c-.091.164-.262.257-.438.257-.082 0-.166-.02-.243-.063-.242-.134-.328-.438-.194-.68l.698-1.257-.698-1.257c-.134-.242-.047-.546.194-.68s.546-.047.68.194l.397.714.396-.713c.134-.242.439-.329.68-.194.242.134.328.438.194.68l-.698 1.257zm2.896-2.258h-.333v2.5c0 .276-.224.5-.5.5s-.5-.224-.5-.5v-2.5h-.334c-.276 0-.5-.224-.5-.5s.224-.5.5-.5h1.667c.276 0 .5.224.5.5s-.224.5-.5.5z" fill="#fc573b"/></svg>